<?xml version="1.0" encoding="UTF-8" standalone="no"?>
<!-- Generator: Adobe Illustrator 18.1.1, SVG Export Plug-In . SVG Version: 6.00 Build 0)  -->

<svg
   xmlns:dc="http://purl.org/dc/elements/1.1/"
   xmlns:cc="http://creativecommons.org/ns#"
   xmlns:rdf="http://www.w3.org/1999/02/22-rdf-syntax-ns#"
   xmlns:svg="http://www.w3.org/2000/svg"
   xmlns="http://www.w3.org/2000/svg"
   xmlns:sodipodi="http://sodipodi.sourceforge.net/DTD/sodipodi-0.dtd"
   xmlns:inkscape="http://www.inkscape.org/namespaces/inkscape"
   version="1.1"
   id="Capa_1"
   x="0px"
   y="0px"
   viewBox="0 0 45.437 45.437"
   style="enable-background:new 0 0 45.437 45.437;"
   xml:space="preserve"
   width="512px"
   height="512px"
   sodipodi:docname="bus.svg"
   inkscape:version="0.92.2 (5c3e80d, 2017-08-06)"><metadata
     id="metadata71"><rdf:RDF><cc:Work
         rdf:about=""><dc:format>image/svg+xml</dc:format><dc:type
           rdf:resource="http://purl.org/dc/dcmitype/StillImage" /></cc:Work></rdf:RDF></metadata><defs
     id="defs69" /><sodipodi:namedview
     pagecolor="#ffffff"
     bordercolor="#666666"
     borderopacity="1"
     objecttolerance="10"
     gridtolerance="10"
     guidetolerance="10"
     inkscape:pageopacity="0"
     inkscape:pageshadow="2"
     inkscape:window-width="1464"
     inkscape:window-height="890"
     id="namedview67"
     showgrid="false"
     inkscape:zoom="0.4609375"
     inkscape:cx="-64"
     inkscape:cy="256"
     inkscape:window-x="0"
     inkscape:window-y="0"
     inkscape:window-maximized="0"
     inkscape:current-layer="Capa_1" /><g
     id="g34"
     style="stroke:none;stroke-opacity:1;fill:#246854;fill-opacity:1"><path
       d="M41.403,11.11c-0.371-3.627-0.962-6.451-1.897-7.561c-3.855-4.564-30.859-4.898-33.925,0   c-0.75,1.2-1.276,4.014-1.629,7.567c-1.139,0.134-2.026,1.093-2.026,2.267v4.443c0,0.988,0.626,1.821,1.5,2.146   c-0.207,6.998-0.039,14.299,0.271,17.93c0,2.803,1.883,2.338,1.883,2.338h1.765v3.026c0,1.2,1.237,2.171,2.761,2.171   c1.526,0,2.763-0.971,2.763-2.171V40.24h20.534v3.026c0,1.2,1.236,2.171,2.762,2.171c1.524,0,2.761-0.971,2.761-2.171V40.24h0.58   c0,0,2.216,0.304,2.358-1.016c0-3.621,0.228-11.646,0.04-19.221c0.929-0.291,1.607-1.147,1.607-2.177v-4.443   C43.512,12.181,42.582,11.206,41.403,11.11z M12.176,4.2h20.735v3.137H12.176V4.2z M12.472,36.667c-1.628,0-2.947-1.32-2.947-2.948   c0-1.627,1.319-2.946,2.947-2.946s2.948,1.319,2.948,2.946C15.42,35.347,14.101,36.667,12.472,36.667z M32.8,36.667   c-1.627,0-2.949-1.32-2.949-2.948c0-1.627,1.321-2.946,2.949-2.946s2.947,1.319,2.947,2.946   C35.748,35.347,34.428,36.667,32.8,36.667z M36.547,23.767H8.54V9.077h28.007V23.767z"
       fill="#2f473b"
       id="path2"
       style="stroke:none;stroke-opacity:1;fill:#246854;fill-opacity:1" /><g
       id="g4"
       style="stroke:none;stroke-opacity:1;fill:#246854;fill-opacity:1" /><g
       id="g6"
       style="stroke:none;stroke-opacity:1;fill:#246854;fill-opacity:1" /><g
       id="g8"
       style="stroke:none;stroke-opacity:1;fill:#246854;fill-opacity:1" /><g
       id="g10"
       style="stroke:none;stroke-opacity:1;fill:#246854;fill-opacity:1" /><g
       id="g12"
       style="stroke:none;stroke-opacity:1;fill:#246854;fill-opacity:1" /><g
       id="g14"
       style="stroke:none;stroke-opacity:1;fill:#246854;fill-opacity:1" /><g
       id="g16"
       style="stroke:none;stroke-opacity:1;fill:#246854;fill-opacity:1" /><g
       id="g18"
       style="stroke:none;stroke-opacity:1;fill:#246854;fill-opacity:1" /><g
       id="g20"
       style="stroke:none;stroke-opacity:1;fill:#246854;fill-opacity:1" /><g
       id="g22"
       style="stroke:none;stroke-opacity:1;fill:#246854;fill-opacity:1" /><g
       id="g24"
       style="stroke:none;stroke-opacity:1;fill:#246854;fill-opacity:1" /><g
       id="g26"
       style="stroke:none;stroke-opacity:1;fill:#246854;fill-opacity:1" /><g
       id="g28"
       style="stroke:none;stroke-opacity:1;fill:#246854;fill-opacity:1" /><g
       id="g30"
       style="stroke:none;stroke-opacity:1;fill:#246854;fill-opacity:1" /><g
       id="g32"
       style="stroke:none;stroke-opacity:1;fill:#246854;fill-opacity:1" /></g><g
     id="g36" /><g
     id="g38" /><g
     id="g40" /><g
     id="g42" /><g
     id="g44" /><g
     id="g46" /><g
     id="g48" /><g
     id="g50" /><g
     id="g52" /><g
     id="g54" /><g
     id="g56" /><g
     id="g58" /><g
     id="g60" /><g
     id="g62" /><g
     id="g64" /></svg>